<?xml version="1.0" encoding="UTF-8"?>
<svg width="40px" height="40px" viewBox="0 0 40 40" version="1.1" xmlns="http://www.w3.org/2000/svg" xmlns:xlink="http://www.w3.org/1999/xlink">
    <!-- Generator: Sketch 40.3 (33839) - http://www.bohemiancoding.com/sketch -->
    <title>illustrator-cc</title>
    <desc>Created with Sketch.</desc>
    <defs>
        <radialGradient cx="32.9650704%" cy="22.43%" fx="32.9650704%" fy="22.43%" r="0.139277297%" id="radialGradient-1">
            <stop stop-color="#34364E" stop-opacity="0.98" offset="0%"></stop>
            <stop stop-color="#0C0824" offset="100%"></stop>
        </radialGradient>
    </defs>
    <g id="Page-1" stroke="none" stroke-width="1" fill="none" fill-rule="evenodd">
        <g id="Hosting-Requirements" transform="translate(-90.000000, -2169.000000)">
            <g id="Adobr-Photoshop" transform="translate(90.000000, 2169.000000)">
                <g id="illustrator-cc">
                    <g id="Layer_1">
                        <polygon id="Shape" fill="url(#radialGradient-1)" points="1.66309614 1.75594502 38.2517475 1.75594502 38.2517475 38.2364948 1.66309614 38.2364948"></polygon>
                        <path d="M1.66309614,1.75594502 L38.2517475,1.75594502 L38.2517475,38.2364948 L1.66309614,38.2364948 L1.66309614,1.75594502 L1.66309614,1.75594502 Z M0,39.9412371 L39.9148437,39.9412371 L39.9148437,0.0512714777 L0,0.0512714777 L0,39.9412371 L0,39.9412371 Z M26.5115741,14.4682423 C26.5115741,14.3352938 26.5615674,14.2687526 26.7116144,14.2687526 L29.3282654,14.2687526 C29.4615136,14.2687526 29.5282385,14.3186082 29.5282385,14.4682423 L29.5282385,27.5820928 C29.5282385,27.7149742 29.4949097,27.7815155 29.3282654,27.7815155 L26.7449433,27.7815155 C26.578299,27.7815155 26.5282385,27.6984227 26.5282385,27.5654742 L26.5282385,14.4682423 L26.5115741,14.4682423 L26.5115741,14.4682423 L26.5115741,14.4682423 Z M26.3282654,10.6952938 C26.3282654,9.63157216 27.0782318,9 28.0283057,9 C29.0449702,9 29.7282789,9.68142784 29.7282789,10.6952938 C29.7282789,11.7922526 29.0116413,12.3905876 27.9949769,12.3905876 C27.0282385,12.3906546 26.3282654,11.7922526 26.3282654,10.6952938 L26.3282654,10.6952938 Z M18.8282654,19.9364845 C18.3616615,18.0915567 17.2616749,14.0693299 16.8449298,12.1246907 L16.811601,12.1246907 C16.4615808,14.0693299 15.578299,17.3602062 14.8783259,19.9364845 L18.8282654,19.9364845 L18.8282654,19.9364845 L18.8282654,19.9364845 Z M14.19495,22.6290928 L12.8782587,27.6153299 C12.8449298,27.7482113 12.7949366,27.7814485 12.6282923,27.7814485 L10.1782856,27.7814485 C10.0116413,27.7814485 9.97824526,27.7315928 10.0116413,27.5321701 L14.7449433,11.0110464 C14.8282654,10.7119124 14.8782587,10.4459485 14.9115876,9.63157216 C14.9115876,9.51524227 14.9615808,9.4653866 15.044903,9.4653866 L18.544903,9.4653866 C18.661554,9.4653866 18.7115472,9.49862371 18.7449433,9.63157216 L24.044903,27.5654072 C24.0782318,27.6982887 24.044903,27.7814485 23.9115876,27.7814485 L21.1448895,27.7814485 C21.0115741,27.7814485 20.9281848,27.7482113 20.8949231,27.6319485 L19.5282385,22.6290928 L14.19495,22.6290928 L14.19495,22.6290928 L14.19495,22.6290928 Z" id="Shape" fill="#FF7F18"></path>
                    </g>
                </g>
            </g>
        </g>
    </g>
</svg>